<?xml version="1.0" standalone="no"?>
<!DOCTYPE svg PUBLIC "-//W3C//DTD SVG 20010904//EN"
 "http://www.w3.org/TR/2001/REC-SVG-20010904/DTD/svg10.dtd">
<svg version="1.0" xmlns="http://www.w3.org/2000/svg"
 width="100.000000pt" height="100.000000pt" viewBox="0 0 100.000000 100.000000"
 preserveAspectRatio="xMidYMid meet">
<metadata>
Created by potrace 1.14, written by Peter Selinger 2001-2017
</metadata>
<g transform="translate(0.000000,100.000000) scale(0.100000,-0.100000)"
fill="#000000" stroke="none">
<path d="M382 858 c-112 -34 -115 -76 -18 -210 86 -118 91 -171 28 -310 -40
-86 -31 -156 26 -215 31 -31 45 -39 74 -38 65 0 82 29 93 155 7 88 36 144 91
176 36 21 58 26 126 28 46 1 89 5 95 9 8 5 11 21 9 40 -3 18 -5 42 -5 55 -1
19 -5 21 -28 16 -16 -4 -47 -15 -70 -25 -98 -42 -206 -25 -250 37 -26 39 -33
59 -39 119 -8 74 -21 117 -46 152 l-23 31 -63 -20z"/>
<path d="M580 871 c0 -10 66 -119 82 -134 43 -41 124 -66 169 -52 18 6 18 9
-13 47 -17 22 -52 55 -77 74 -45 33 -161 80 -161 65z"/>
<path d="M176 697 c-79 -134 -80 -304 -3 -423 12 -19 24 -34 27 -34 3 0 7 15
8 33 2 17 21 68 43 112 57 110 55 142 -15 298 -14 31 -28 57 -30 57 -3 0 -16
-19 -30 -43z"/>
<path d="M840 375 c-66 -17 -85 -30 -105 -71 -12 -26 -15 -49 -11 -87 4 -28 8
-53 11 -55 2 -2 18 7 35 19 50 38 130 169 118 197 -1 5 -23 3 -48 -3z"/>
</g>
</svg>
